<?xml version="1.0" standalone="no"?>
<!DOCTYPE svg PUBLIC "-//W3C//DTD SVG 20010904//EN"
 "http://www.w3.org/TR/2001/REC-SVG-20010904/DTD/svg10.dtd">
<svg version="1.0" xmlns="http://www.w3.org/2000/svg"
 width="1024.000000pt" height="1024.000000pt" viewBox="0 0 1024.000000 1024.000000"
 preserveAspectRatio="xMidYMid meet">

<g transform="translate(0.000000,1024.000000) scale(0.100000,-0.100000)"
fill="#eebb01" stroke="none">
<path d="M5195 9000 c-115 -24 -271 -101 -373 -185 l-76 -62 -53 24 c-80 37
-169 49 -248 36 -82 -14 -142 -43 -214 -103 l-56 -47 -35 16 c-22 9 -68 15
-125 15 -82 1 -96 -2 -155 -31 -36 -17 -84 -48 -107 -68 l-42 -35 -50 48 c-77
74 -130 97 -226 97 -69 0 -86 -4 -125 -26 -43 -26 -150 -124 -150 -139 0 -4
-44 -10 -97 -13 -171 -11 -296 -60 -388 -152 -93 -93 -135 -212 -135 -381 l0
-82 -48 -36 c-71 -52 -183 -173 -216 -235 -61 -114 -71 -218 -31 -337 l25 -75
-44 -57 c-71 -91 -100 -163 -101 -252 0 -65 4 -84 33 -142 l33 -67 -17 -57
c-31 -108 -17 -221 40 -319 23 -39 110 -130 153 -160 11 -8 28 -36 37 -61 39
-116 116 -194 212 -215 l54 -12 0 -52 c0 -86 29 -225 60 -291 19 -39 49 -79
80 -107 l50 -45 0 -1370 c0 -1192 -2 -1371 -15 -1382 -33 -27 -107 -336 -126
-520 -17 -176 1 -318 52 -405 49 -82 360 -229 656 -310 818 -223 1933 -231
2718 -18 311 84 562 191 743 316 94 65 143 121 178 205 28 65 29 73 29 237 0
154 -3 179 -27 267 -33 119 -92 274 -117 309 -16 21 -20 47 -22 130 l-3 104
115 7 c67 4 157 17 218 32 425 105 697 380 807 816 51 204 54 682 9 1318 -39
533 -46 619 -55 705 -53 472 -251 758 -610 876 -83 27 -243 51 -342 51 -43 0
-78 3 -78 6 0 4 9 37 20 75 17 55 26 71 54 88 49 31 119 109 145 164 20 41 22
60 19 135 -2 72 -8 97 -33 147 -28 57 -30 65 -27 170 3 104 2 113 -25 165 -35
68 -94 112 -161 120 l-47 5 -8 63 c-21 170 -121 309 -250 347 -28 8 -86 15
-130 15 l-79 0 -58 54 c-43 39 -76 60 -121 75 -73 24 -105 26 -174 7 -27 -7
-57 -15 -65 -17 -12 -3 -16 14 -21 91 -12 173 -55 257 -179 352 -82 63 -225
138 -310 161 -57 16 -195 38 -233 36 -12 0 -62 -9 -112 -19z m279 -115 c136
-29 335 -147 394 -235 43 -64 55 -131 50 -279 -4 -121 -3 -136 14 -153 23 -23
36 -23 73 3 118 80 205 94 287 46 26 -15 61 -47 78 -71 16 -25 35 -46 42 -49
7 -2 51 -2 98 1 49 2 103 -1 128 -7 57 -16 124 -78 151 -141 17 -40 44 -179
40 -208 -8 -51 20 -72 92 -72 94 0 124 -23 143 -113 4 -15 1 -66 -5 -112 -12
-82 -11 -86 12 -122 84 -131 72 -242 -35 -324 -28 -21 -63 -47 -77 -58 -19
-14 -31 -41 -47 -101 -62 -233 -158 -390 -273 -452 -35 -18 -60 -23 -124 -23
-70 0 -89 4 -149 33 -38 18 -91 48 -118 67 -26 19 -57 35 -68 35 -26 0 -46
-34 -55 -93 -18 -129 -88 -207 -186 -207 -45 0 -145 28 -199 55 -26 13 -56 22
-66 19 -10 -3 -34 -25 -52 -50 -44 -59 -79 -75 -160 -75 -73 0 -115 12 -212
61 -82 41 -96 35 -142 -62 -61 -127 -152 -209 -270 -243 -71 -20 -203 -22
-293 -4 -72 14 -92 9 -106 -28 -5 -14 2 -40 23 -83 61 -129 59 -243 -6 -375
-40 -80 -135 -190 -222 -255 -33 -24 -62 -47 -66 -50 -4 -3 -15 -43 -23 -89
-67 -352 -260 -542 -554 -544 -98 -1 -171 22 -241 74 -158 119 -265 363 -316
719 -9 63 -18 119 -21 123 -3 4 -29 19 -59 32 -90 40 -133 101 -160 227 -10
47 -14 111 -12 179 3 137 0 142 -93 133 -56 -5 -74 -3 -94 10 -35 23 -83 100
-97 154 -8 31 -21 51 -47 70 -65 48 -137 127 -159 174 -31 63 -32 168 -3 234
28 62 26 84 -8 128 -40 50 -55 99 -48 157 8 66 37 117 107 192 33 36 60 73 60
83 0 11 -16 50 -35 88 -42 82 -47 154 -15 239 26 70 112 173 195 233 37 27 76
56 87 64 18 14 20 27 19 130 -1 127 12 195 53 264 69 118 223 186 420 186 l85
0 30 43 c86 124 180 163 278 116 39 -19 153 -131 153 -151 0 -4 15 -8 33 -8
26 1 44 12 91 60 80 81 131 105 221 104 54 -1 83 -7 124 -27 29 -14 60 -23 68
-20 8 3 37 30 65 59 73 77 143 109 239 109 70 0 84 -3 159 -42 95 -49 95 -49
176 28 96 90 256 178 358 199 67 13 196 11 270 -5z m1839 -2264 c342 -81 551
-354 597 -781 5 -52 19 -210 30 -350 45 -592 54 -779 55 -1135 0 -316 -2 -371
-19 -450 -107 -510 -439 -800 -951 -832 l-103 -6 -6 99 c-3 54 -8 161 -12 236
l-6 136 49 7 c139 18 256 72 353 162 106 98 170 219 211 401 21 92 22 119 21
497 -2 712 -38 1069 -130 1268 -50 107 -90 157 -152 191 -109 60 -238 15 -392
-135 -33 -33 -62 -58 -63 -57 -2 2 -8 120 -14 262 l-12 260 40 40 c41 43 105
138 121 180 5 13 19 27 32 30 50 11 265 -3 351 -23z m-1039 -255 c76 -45 179
-69 264 -63 43 3 87 8 99 12 30 9 29 11 48 -455 9 -217 20 -480 25 -585 10
-185 24 -501 55 -1190 17 -400 31 -703 45 -980 5 -110 9 -229 9 -265 l0 -65
-97 -88 c-140 -128 -262 -201 -482 -289 -305 -123 -758 -201 -1258 -217 -528
-16 -948 23 -1322 123 -132 35 -199 60 -316 115 -127 61 -199 107 -296 190
l-77 66 -1 1175 c0 645 4 1170 8 1165 5 -6 16 -37 26 -69 46 -151 136 -305
233 -397 113 -108 250 -149 427 -130 188 21 321 96 430 241 72 96 117 201 150
351 l17 75 74 62 c234 195 326 428 260 657 -6 19 -1 20 102 20 92 1 120 5 190
30 114 39 202 108 271 211 30 43 59 78 65 77 7 -1 46 -14 87 -29 84 -30 187
-36 257 -16 23 7 65 31 94 54 50 39 54 40 83 29 139 -57 280 -53 366 11 41 30
88 102 102 155 6 24 13 43 16 43 3 0 24 -11 46 -24z m958 -422 c32 -31 88
-142 113 -228 42 -138 63 -391 74 -896 10 -416 3 -633 -24 -735 -64 -247 -240
-409 -465 -427 l-35 -3 -7 125 c-4 69 -14 285 -23 480 -8 195 -20 443 -25 550
-24 479 -40 912 -35 921 4 5 11 9 16 9 6 0 45 37 88 83 45 46 106 99 142 120
79 47 132 47 181 1z m-324 -3397 c115 -299 113 -583 -5 -693 -86 -81 -314
-204 -503 -272 -492 -178 -1088 -255 -1780 -231 -730 25 -1368 168 -1702 381
-79 51 -93 94 -92 283 1 164 25 303 90 528 7 24 27 21 55 -9 89 -97 326 -230
534 -299 596 -198 1530 -228 2308 -74 411 80 764 238 975 435 37 34 70 60 74
58 4 -3 24 -50 46 -107z"/>
</g>
</svg>
